<svg xmlns="http://www.w3.org/2000/svg" width="1280" height="800" viewBox="0 0 1280 800"
     font-family="-apple-system, system-ui, sans-serif" fill="#fff" stroke="#000" stroke-width="1.5">
  <!-- Screen 1: Decisions home — "Today's desk". Desktop 1280x800 -->
  <rect x="0" y="0" width="1280" height="800" />

  <!-- top bar -->
  <line x1="0" y1="56" x2="1280" y2="56" />
  <text x="32" y="35" font-size="14" stroke="none" fill="#000">PAP / Decisions</text>
  <g transform="translate(1024, 12)">
    <rect width="224" height="32" rx="16" />
    <text x="16" y="21" font-size="12" stroke="none" fill="#666">Search decisions…</text>
  </g>

  <!-- header -->
  <text x="32" y="100" font-size="28" stroke="none" fill="#000">Decisions</text>
  <text x="1248" y="98" font-size="14" text-anchor="end" stroke="none" fill="#666">8 need you today · 290 open · 146 older than 30d</text>

  <!-- queue quicklinks rail (ordered by recently updated) -->
  <g transform="translate(32, 120)">
    <rect width="88" height="32" rx="16" fill="#e6e6e6" />
    <text x="44" y="20" font-size="12" text-anchor="middle" stroke="none" fill="#000">All · 8</text>
  </g>
  <g transform="translate(128, 120)">
    <rect width="96" height="32" rx="16" />
    <text x="48" y="20" font-size="12" text-anchor="middle" stroke="none" fill="#000">PRs · 5</text>
    <circle cx="88" cy="8" r="4" fill="#000" />
  </g>
  <g transform="translate(232, 120)">
    <rect width="104" height="32" rx="16" />
    <text x="52" y="20" font-size="12" text-anchor="middle" stroke="none" fill="#000">Plans · 3</text>
  </g>
  <g transform="translate(344, 120)">
    <rect width="104" height="32" rx="16" />
    <text x="52" y="20" font-size="12" text-anchor="middle" stroke="none" fill="#000">foobar · 2</text>
  </g>
  <g transform="translate(456, 120)">
    <rect width="128" height="32" rx="16" />
    <text x="64" y="20" font-size="12" text-anchor="middle" stroke="none" fill="#000">Questions · 1</text>
  </g>
  <g transform="translate(592, 120)">
    <rect width="96" height="32" rx="16" stroke-dasharray="4 3" />
    <text x="48" y="20" font-size="12" text-anchor="middle" stroke="none" fill="#666">+ queue</text>
  </g>

  <!-- date range chips -->
  <g transform="translate(32, 168)">
    <rect width="72" height="24" rx="12" fill="#e6e6e6" />
    <text x="36" y="16" font-size="12" text-anchor="middle" stroke="none" fill="#000">Today</text>
  </g>
  <g transform="translate(112, 168)">
    <rect width="88" height="24" rx="12" />
    <text x="44" y="16" font-size="12" text-anchor="middle" stroke="none" fill="#000">Yesterday</text>
  </g>
  <g transform="translate(208, 168)">
    <rect width="96" height="24" rx="12" />
    <text x="48" y="16" font-size="12" text-anchor="middle" stroke="none" fill="#000">Last 7 days</text>
  </g>
  <g transform="translate(312, 168)">
    <rect width="96" height="24" rx="12" />
    <text x="48" y="16" font-size="12" text-anchor="middle" stroke="none" fill="#000">This month</text>
  </g>
  <g transform="translate(416, 168)">
    <rect width="88" height="24" rx="12" />
    <text x="44" y="16" font-size="12" text-anchor="middle" stroke="none" fill="#000">Custom ▾</text>
  </g>

  <!-- ===== main column ===== -->
  <!-- section: decide now -->
  <text x="32" y="232" font-size="14" stroke="none" fill="#000">DECIDE NOW · 3</text>
  <text x="896" y="232" font-size="12" text-anchor="end" stroke="none" fill="#666">ordered by importance</text>

  <!-- row 1 -->
  <g transform="translate(32, 244)">
    <rect width="864" height="88" rx="4" />
    <rect x="16" y="24" width="40" height="40" rx="4" fill="#e6e6e6" />
    <text x="36" y="49" font-size="12" text-anchor="middle" stroke="none" fill="#000">PR</text>
    <text x="72" y="36" font-size="14" stroke="none" fill="#000">Merge PR #10623 — inbox sort pinning fix</text>
    <text x="72" y="60" font-size="12" stroke="none" fill="#666">Gardener · PAP-16015 · CI green · asked 2h ago · expires in 22h</text>
    <rect x="560" y="12" width="64" height="24" rx="12" fill="#e6e6e6" />
    <text x="592" y="28" font-size="12" text-anchor="middle" stroke="none" fill="#000">PRs</text>
    <rect x="656" y="28" width="80" height="32" rx="4" fill="#e6e6e6" />
    <text x="696" y="48" font-size="12" text-anchor="middle" stroke="none" fill="#000">Decide</text>
    <rect x="744" y="28" width="88" height="32" rx="4" />
    <text x="788" y="48" font-size="12" text-anchor="middle" stroke="none" fill="#000">Snooze ▾</text>
  </g>

  <!-- row 2 -->
  <g transform="translate(32, 340)">
    <rect width="864" height="88" rx="4" />
    <rect x="16" y="24" width="40" height="40" rx="4" fill="#e6e6e6" />
    <text x="36" y="49" font-size="12" text-anchor="middle" stroke="none" fill="#000">Pl</text>
    <text x="72" y="36" font-size="14" stroke="none" fill="#000">Approve plan rev 2 — heartbeat.ts split</text>
    <text x="72" y="60" font-size="12" stroke="none" fill="#666">Senior Engineer Fable · PAP-16028 · asked 4h ago</text>
    <rect x="552" y="12" width="72" height="24" rx="12" fill="#e6e6e6" />
    <text x="588" y="28" font-size="12" text-anchor="middle" stroke="none" fill="#000">Plans</text>
    <rect x="656" y="28" width="80" height="32" rx="4" fill="#e6e6e6" />
    <text x="696" y="48" font-size="12" text-anchor="middle" stroke="none" fill="#000">Decide</text>
    <rect x="744" y="28" width="88" height="32" rx="4" />
    <text x="788" y="48" font-size="12" text-anchor="middle" stroke="none" fill="#000">Snooze ▾</text>
  </g>

  <!-- row 3 -->
  <g transform="translate(32, 436)">
    <rect width="864" height="88" rx="4" />
    <rect x="16" y="24" width="40" height="40" rx="4" fill="#e6e6e6" />
    <text x="36" y="49" font-size="12" text-anchor="middle" stroke="none" fill="#000">?</text>
    <text x="72" y="36" font-size="14" stroke="none" fill="#000">5 questions — delegated comment authority details</text>
    <text x="72" y="60" font-size="12" stroke="none" fill="#666">Senior Engineer Fable · PAP-15599 · asked today 09:12</text>
    <rect x="528" y="12" width="96" height="24" rx="12" fill="#e6e6e6" />
    <text x="576" y="28" font-size="12" text-anchor="middle" stroke="none" fill="#000">Questions</text>
    <rect x="656" y="28" width="80" height="32" rx="4" fill="#e6e6e6" />
    <text x="696" y="48" font-size="12" text-anchor="middle" stroke="none" fill="#000">Answer</text>
    <rect x="744" y="28" width="88" height="32" rx="4" />
    <text x="788" y="48" font-size="12" text-anchor="middle" stroke="none" fill="#000">Snooze ▾</text>
  </g>

  <!-- section: can wait -->
  <text x="32" y="564" font-size="14" stroke="none" fill="#000">CAN WAIT · 5</text>

  <g transform="translate(32, 576)">
    <rect width="864" height="64" rx="4" />
    <rect x="16" y="16" width="32" height="32" rx="4" fill="#e6e6e6" />
    <text x="64" y="30" font-size="14" stroke="none" fill="#000">Confirm queue rename: "foobar" → "release-prep"</text>
    <text x="64" y="50" font-size="12" stroke="none" fill="#666">Gardener · asked today · low stakes</text>
    <rect x="744" y="16" width="88" height="32" rx="4" />
    <text x="788" y="36" font-size="12" text-anchor="middle" stroke="none" fill="#000">Open</text>
  </g>
  <g transform="translate(32, 648)">
    <rect width="864" height="64" rx="4" />
    <rect x="16" y="16" width="32" height="32" rx="4" fill="#e6e6e6" />
    <text x="64" y="30" font-size="14" stroke="none" fill="#000">Checkbox: pick green feature PRs to land (4 options)</text>
    <text x="64" y="50" font-size="12" stroke="none" fill="#666">Senior Engineer Fable · PAP-15941 · asked yesterday</text>
    <rect x="744" y="16" width="88" height="32" rx="4" />
    <text x="788" y="36" font-size="12" text-anchor="middle" stroke="none" fill="#000">Open</text>
  </g>
  <text x="32" y="740" font-size="12" stroke="none" fill="#666">+ 3 more…</text>

  <!-- ===== right rail ===== -->
  <g transform="translate(920, 216)">
    <rect width="328" height="216" rx="4" />
    <text x="16" y="32" font-size="14" stroke="none" fill="#000">Backlog health</text>
    <text x="16" y="64" font-size="20" stroke="none" fill="#000">290 open</text>
    <text x="16" y="88" font-size="12" stroke="none" fill="#666">146 older than 30 days · 261 still "medium"</text>
    <!-- mini age histogram -->
    <rect x="16" y="104" width="16" height="16" fill="#e6e6e6" />
    <rect x="40" y="96" width="16" height="24" fill="#e6e6e6" />
    <rect x="64" y="88" width="16" height="32" fill="#e6e6e6" />
    <rect x="88" y="64" width="16" height="56" fill="#e6e6e6" />
    <rect x="112" y="48" width="16" height="72" fill="#e6e6e6" />
    <text x="16" y="140" font-size="12" stroke="none" fill="#666">today → older</text>
    <rect x="16" y="160" width="200" height="32" rx="4" />
    <text x="116" y="180" font-size="12" text-anchor="middle" stroke="none" fill="#000">Review aging shelf (146)</text>
  </g>

  <g transform="translate(920, 456)">
    <rect width="328" height="200" rx="4" />
    <text x="16" y="32" font-size="14" stroke="none" fill="#000">Agent triage</text>
    <text x="16" y="60" font-size="12" stroke="none" fill="#000">Gardener: 12 PR merges look batchable</text>
    <rect x="16" y="72" width="136" height="24" rx="4" />
    <text x="84" y="88" font-size="12" text-anchor="middle" stroke="none" fill="#000">Open PRs queue</text>
    <text x="16" y="128" font-size="12" stroke="none" fill="#000">Prioritizer: 3 flagged decide-today,</text>
    <text x="16" y="144" font-size="12" stroke="none" fill="#000">87 proposed for auto-archive</text>
    <rect x="16" y="156" width="136" height="24" rx="4" />
    <text x="84" y="172" font-size="12" text-anchor="middle" stroke="none" fill="#000">Review proposal</text>
  </g>

  <!-- annotations -->
  <g stroke="#d33" stroke-dasharray="4 3">
    <circle cx="672" cy="136" r="12" fill="#fff" />
    <text x="672" y="140" font-size="12" text-anchor="middle" stroke="none" fill="#d33">1</text>
    <circle cx="528" cy="180" r="12" fill="#fff" />
    <text x="528" y="184" font-size="12" text-anchor="middle" stroke="none" fill="#d33">2</text>
    <circle cx="960" cy="232" r="12" fill="#fff" />
    <text x="960" y="236" font-size="12" text-anchor="middle" stroke="none" fill="#d33">3</text>
    <circle cx="920" cy="288" r="12" fill="#fff" />
    <text x="920" y="292" font-size="12" text-anchor="middle" stroke="none" fill="#d33">4</text>
    <circle cx="1184" cy="480" r="12" fill="#fff" />
    <text x="1184" y="484" font-size="12" text-anchor="middle" stroke="none" fill="#d33">5</text>
    <circle cx="16" cy="232" r="12" fill="#fff" />
    <text x="16" y="236" font-size="12" text-anchor="middle" stroke="none" fill="#d33">6</text>
  </g>
</svg>
